<?xml version="1.0" encoding="UTF-8"?>
<svg version="1.1" xmlns="http://www.w3.org/2000/svg" width="96" height="96">
<path d="M0 0 C2.84642548 1.28298004 4.09533656 2.11167997 6.1875 4.5625 C9.96334867 7.83490218 13.1392761 7.88351206 18 8 C18.02578125 8.60328125 18.0515625 9.2065625 18.078125 9.828125 C18.33775703 13.48657636 18.59167992 16.28987813 20.4375 19.5 C23.80135249 21.46908438 26.6910916 21.42339416 30.53125 21.671875 C35.39705283 22.31859563 38.17871005 25.06772492 41.3125 28.625 C43.6731402 31.9473825 44.11997591 33.60168627 44.0625 37.625 C44.05347656 38.44226562 44.04445313 39.25953125 44.03515625 40.1015625 C44.02355469 40.72804687 44.01195313 41.35453125 44 42 C44.86625 42.020625 45.7325 42.04125 46.625 42.0625 C50.65412003 43.18170001 52.31534926 44.52255103 54.859375 47.76953125 C57.05104074 52.05528857 56.82089978 56.34823457 56 61 C53.79258777 65.57833648 51.49880859 67.75525276 47 70 C44.07861328 70.38095093 44.07861328 70.38095093 40.8203125 70.38818359 C39.59554199 70.39764008 38.37077148 70.40709656 37.10888672 70.4168396 C35.7942041 70.41076691 34.47952148 70.40469421 33.125 70.3984375 C31.75406744 70.40046018 30.38313593 70.40337324 29.01220703 70.40713501 C26.14410115 70.41154928 23.27627625 70.40515663 20.40820312 70.39111328 C16.73956941 70.37402148 13.0715942 70.38386754 9.40298462 70.40183067 C6.573599 70.41269306 3.74436842 70.40921102 0.91497803 70.4014473 C-1.09298126 70.39848474 -3.10094667 70.40756466 -5.10888672 70.4168396 C-6.33365723 70.40738312 -7.55842773 70.39792664 -8.8203125 70.38818359 C-9.89555176 70.38579681 -10.97079102 70.38341003 -12.07861328 70.38095093 C-16.41175631 69.81590596 -19.02329136 67.81832345 -22.3125 65.0625 C-24.9975444 60.18964165 -24.97297545 55.42290731 -24 50 C-22.42731638 47.13272925 -20.6396969 44.94216041 -18 43 C-17.34 43 -16.68 43 -16 43 C-15.93643203 38.48667411 -15.88884655 34.51982287 -18.625 30.77734375 C-20.35318195 29.08051994 -22.09876155 27.49914886 -24 26 C-22.71701996 23.15357452 -21.88832003 21.90466344 -19.4375 19.8125 C-16.16509782 16.03665133 -16.11648794 12.8607239 -16 8 C-15.43152344 8.00902344 -14.86304688 8.01804687 -14.27734375 8.02734375 C-9.23606773 7.83377222 -6.53569714 7.09468398 -2.9375 3.4375 C-1.93714586 2.31011676 -0.9500945 1.17005207 0 0 Z " fill="#C0BAFA" transform="translate(32,12)"/>
<path d="M0 0 C2.84642548 1.28298004 4.09533656 2.11167997 6.1875 4.5625 C9.96334867 7.83490218 13.1392761 7.88351206 18 8 C18.02578125 8.59167969 18.0515625 9.18335938 18.078125 9.79296875 C18.45704414 15.0720013 19.10636661 18.10636661 23 22 C20.33333333 24 17.66666667 26 15 28 C14.30003906 28.5775 13.60007813 29.155 12.87890625 29.75 C12.25886719 30.1625 11.63882813 30.575 11 31 C8.6875 30.1875 8.6875 30.1875 6 29 C1.90645315 28.55343125 -0.47116458 28.76609203 -4.25 30.4375 C-7.90036536 33.83897681 -8.84091516 37.24165172 -10 42 C-12.97 42.495 -12.97 42.495 -16 43 C-15.99097656 42.35933594 -15.98195313 41.71867187 -15.97265625 41.05859375 C-16.154708 35.74743188 -16.68565733 32.68149673 -20.5625 28.875 C-21.68765459 27.89247064 -22.82702027 26.9249083 -24 26 C-22.71701996 23.15357452 -21.88832003 21.90466344 -19.4375 19.8125 C-16.16509782 16.03665133 -16.11648794 12.8607239 -16 8 C-15.43152344 8.00902344 -14.86304688 8.01804687 -14.27734375 8.02734375 C-9.23606773 7.83377222 -6.53569714 7.09468398 -2.9375 3.4375 C-1.93714586 2.31011676 -0.9500945 1.17005207 0 0 Z " fill="#FE4401" transform="translate(32,12)"/>
<path d="M0 0 C3.41261927 2.27507951 4.92418737 4.23824975 6.8125 7.875 C7.5625 11.75 7.5625 11.75 7.8125 14.875 C6.125 16.5 6.125 16.5 3.8125 17.875 C1.5 17.0625 1.5 17.0625 -1.1875 15.875 C-6.91300881 15.25039904 -9.69504208 16.32282397 -14.1875 19.875 C-14.8475 20.535 -15.5075 21.195 -16.1875 21.875 C-19.02209773 17.15067045 -20.15924273 13.28436788 -19.1875 7.875 C-14.96933115 -0.40510922 -8.89434708 -3.13918132 0 0 Z " fill="#FEB13A" transform="translate(39.1875,25.125)"/>
</svg>
